# xmcd
#
# Track frame offsets:
#	150
#	21893
#	35131
#	53088
#	72550
#	95809
#	115944
#	133812
#	153673
#	173975
#	190216
#	208672
#	230363
#	248786
#	265865
#	284277
#	300886
#	317859
#
# Disc length: 4414 seconds
#
# Revision: 0
# Processed by: cddbd v1.5.1PL2 Copyright (c) Steve Scherf et al.
# Submitted via: dBpowerAMP V4.0
#
DISCID=0c113c12
DTITLE=Varios - Romanticas Vol 2
DYEAR=1900
DGENRE=Ballad
TTITLE0=La Clave del Amor - Ricardo Montaner
TTITLE1=Yo Te Voy a Amar - N´Sync
TTITLE2=Sigue Sin Mi - Marco Antonio Solis
TTITLE3=Dentro Del Corazon - Luis Fonsi
TTITLE4=Mientras Puedas Soñar - Frank D.
TTITLE5=Candela - Chayanne
TTITLE6=Tal Vez, Quizas - Paulina Rubio
TTITLE7=Te Quise Olvidar - MDO
TTITLE8=Si No Te Hubiera Conocido - Desconocido
TTITLE9=La Meta De Mi Viaje - Laura Pausini
TTITLE10=El Alma Al Aire - Alejandro Sanz
TTITLE11=Pero Me Acuerdo de Ti - Christina Aguilera
TTITLE12=Para Que - Oscar De La Hoya
TTITLE13=Te Equivocas - Axel Fernandez
TTITLE14=Quiero Saberlo - Eros Ramazotti
TTITLE15=Mi Eterno Amor Secreto - Marco A. Solis
TTITLE16=Estar Contigo - A Punto 5
TTITLE17=No Te Vayas Ahora - Servando y Florentino
EXTD=
EXTT0=
EXTT1=
EXTT2=
EXTT3=
EXTT4=
EXTT5=
EXTT6=
EXTT7=
EXTT8=
EXTT9=
EXTT10=
EXTT11=
EXTT12=
EXTT13=
EXTT14=
EXTT15=
EXTT16=
EXTT17=
PLAYORDER=
